<svg xmlns="http://www.w3.org/2000/svg" width="604" height="223"><path d="M0 0v10h1c2.429-2.737 6.258-6.887 9.984-7.694C16.453 1.12 15.594 6.617 13 9c.72 2.113 9.416 21.87.298 16.914-3.199-1.739-3.443-6.867-5.512-9.6C5.98 13.923 2.64 13.153 0 12v211h33l-4.91-116L26 59l15-1-1-20 123-3c-10.966 17.854-23.471 34.744-35.341 52-2.98 4.332-12.261 13.407-11.626 18.91 1.295 11.222 25.911 16.438 25.911 28.051 0 8.333-16.537 9.913-16.944 19.039-20.373 9.078-13 33.345-13 52H93v15l-58 2v1h569v-36h-26l7 15-40 1-15.895-.218L520 189c-9.98 1.989-7.756 12.154-16.043 15.397C491.249 209.368 469.616 207 456 207l19.053-57 7.553-24-9.325-24L449 45l20-1-8-19c15.136-.312 38.665-6.746 52.996-1.397 6.33 2.363 10.5 18.742 16.873 17.931 6.322-.804 5.248-15.984 12.174-18.792C548.117 20.685 555.607 22 561 22h38l-24.424 63-8.613 25 10.256 21L603 184h1V0H24l1 4c9.574.113 13.118 8.2 14 17-3.207.29-7.898 3.193-10.895 2.267C22.52 21.541 18.303 5.058 19 0H0z" fill="#fff"/><path d="M39 21c-.485-9.458-4.008-16.965-14-17-.746-2.248-3.591-5.67-5.93-2.392-2.424 3.398 4.628 20.191 8.218 21.77 3.341 1.47 8.3-1.844 11.712-2.378M13 9c3.52-2.358 3.556-8.348-2.015-7.263-3.034.59-11.407 6.15-9.729 9.99 1.09 2.495 4.928 3.068 6.53 5.42 1.813 2.662 2.28 7.847 5.512 9.23 7.658 3.278 4.152-7.508 2.877-10.375C15.134 13.658 14.097 11.317 13 9m28.318-6.971c-6.983 4.605.789 21.706 9.248 15.942 6.482-4.416-1.602-20.985-9.248-15.942z"/><path d="M20 4l3-1-3 1z" fill="#4f4f4f"/><path d="M12 3l1 3h1l-2-3z" fill="#8f8f8f"/><path d="M21 3l7 18h1c-.975-5.755-3.13-14.418-8-18z" fill="#fff"/><path d="M43 3v1h3l-3-1z" fill="#9f9f9f"/><path d="M3 10v1l6-1c.886 5.144 2.655 12.174 8 14L10 7l3-3-10 6z" fill="#fff"/><path d="M42 4l-1 6h2l-1-6z" fill="#dfdfdf"/><path d="M43 4v6c2.67-1.732 2.71-2.942 2-6h-2z"/><path d="M45 4l2 5h1l-3-5z" fill="#dfdfdf"/><path d="M21 5l1 1-1-1z" fill="#6f6f6f"/><path d="M23 5l1 1-1-1m24 0l1 1-1-1z" fill="#7f7f7f"/><path d="M8 6l1 1-1-1z" fill="#8f8f8f"/><path d="M25 11l4-4 3 1c-3.399-2.282-5.07-.082-7 3z" fill="#9f9f9f"/><path d="M10 7l1 1-1-1z" fill="#8f8f8f"/><path d="M22 7l1 1-1-1z" fill="#9f9f9f"/><path d="M24 7l1 1-1-1z" fill="#5f5f5f"/><path d="M46 7v3h1l-1-3z" fill="#8f8f8f"/><path d="M30 8l1 1-1-1z" fill="#5f5f5f"/><path d="M31 8l4 11h1L31 8z" fill="#fff"/><path d="M32 8l1 1-1-1z" fill="#5f5f5f"/><path d="M4 9l1 1-1-1z" fill="#6f6f6f"/><path d="M10 9l1 1-1-1z" fill="#7f7f7f"/><path d="M45 9l-2 1v1l2-2z" fill="#2f2f2f"/><path d="M6 10l1 1-1-1m2 0l1 1-1-1z" fill="#9f9f9f"/><path d="M27.333 10.667l.334.666-.334-.666z" fill="#3f3f3f"/><path d="M31 10l1 1-1-1z" fill="#7f7f7f"/><path d="M42 10l4 6-4-6z" fill="#fff"/><path d="M4.667 11.333l.666.334-.666-.334z" fill="#6f6f6f"/><path d="M49.667 11.333l.666.334-.666-.334z" fill="#5f5f5f"/><path d="M24 12l1 1-1-1z" fill="#8f8f8f"/><path d="M32 12l1 1-1-1m17 0v2h2v-2h-2z" fill="#9f9f9f"/><path d="M9 13l1 1-1-1z" fill="#5f5f5f"/><path d="M27 13v3h1l-1-3z" fill="#4f4f4f"/><path d="M34 13l1 1-1-1z" fill="#9f9f9f"/><path d="M12 14l1 1-1-1z" fill="#8f8f8f"/><path d="M49.333 14.667l.334.666-.334-.666z" fill="#dfdfdf"/><path d="M10 15l1 1-1-1z" fill="#8f8f8f"/><path d="M30 15l1 1-1-1z" fill="#fff"/><path d="M33 15l1 1-1-1z" fill="#6f6f6f"/><path d="M35 15l1 1-1-1z" fill="#7f7f7f"/><path d="M48 15l-3 1v1l3-2z" fill="#6f6f6f"/><path d="M13 16l1 1-1-1z" fill="#5f5f5f"/><path d="M26 17l1 1-1-1m2 0l1 1-1-1z" fill="#7f7f7f"/><path d="M31 17l1 1-1-1z" fill="#fff"/><path d="M34.333 17.667l.334.666-.334-.666z" fill="#7f7f7f"/><path d="M36.333 17.667l.334.666-.334-.666z" fill="#8f8f8f"/><path d="M14 19l1 1-1-1m13 0l1 1-1-1z" fill="#9f9f9f"/><path d="M12 20l1 1-1-1z" fill="#7f7f7f"/><path d="M29 20l-1 2h2l-1-2z" fill="#8f8f8f"/><path d="M15 21l1 1-1-1m-1.667 1.667l.334.666-.334-.666z" fill="#6f6f6f"/><path d="M461 25l8 19-20 1c3.398 19.732 16.783 40.607 24.719 59 2.776 6.434 8.34 14.923 8.577 22 .242 7.255-4.786 16.276-7.243 23-6.51 17.815-17.163 39.138-19.053 58 13.706 0 36.179 2.596 48.895-2.603 7.62-3.116 5.912-12.887 15.105-15.397l8.213 13.817L544 203l41-1-7-15h26c-3.274-19.011-18.796-39.973-27.781-57-3.14-5.952-9.507-13.722-10.064-20.576-.595-7.328 6.254-17.63 8.795-24.424 7.718-20.636 18.973-41.574 24.05-63h-39c-5.311 0-12.926-1.366-17.895.742-6.522 2.767-5.024 17.357-11.236 18.337-6.004.947-10.112-16.045-16.873-17.761-15.734-3.994-36.905.991-52.996 1.682z"/><path d="M14.667 24.333l.666.334-.666-.334z" fill="#6f6f6f"/><path d="M326 31l1 20h-14l7 161 96-4-9-15 28-1c-4.613-15.902-17.551-30.326-26.667-44-2.729-4.094-10.279-11.822-9.642-17 1.063-8.652 13.453-14.599 16.309-23l-20-15 35-66-104 4z"/><path d="M544 27v1l47 1-13-2h-34z" fill="#bfbfbf"/><path d="M493 28v1h11l-11-1z" fill="#3f3f3f"/><path d="M504 28v1h6l-6-1z" fill="#7f7f7f"/><path d="M510 28v1h3l-3-1z" fill="#bfbfbf"/><path d="M543 28l1 1-1-1z" fill="#6f6f6f"/><path d="M533 54l-19.213-23.972L501 29l-32 1c7.44 18.135 15.622 36.014 23.424 54 2.999 6.912 9.466 16.323 9.287 24-.178 7.608-4.651 15.991-7.286 23-6.166 16.404-15.901 36.546-17.425 54l29-.961 13.61-1.067L532 162h2l11.39 18.972L560 182l36-1c-7.3-17.441-17.577-34.179-26.258-51-3.226-6.25-9.346-13.671-9.372-21-.027-7.48 5.298-16.17 8.03-23 7.233-18.083 18.714-38.734 21.6-58h-32l-13.501 1.028L533 54z" fill="#fff"/><path d="M469 29v1h5l-5-1z" fill="#3f3f3f"/><path d="M474 29v1h6l-6-1z" fill="#7f7f7f"/><path d="M480 29v1h6l-6-1z" fill="#bfbfbf"/><path d="M514 29l1 1-1-1z" fill="#5f5f5f"/><path d="M542.333 30.667l.334.666-.334-.666z" fill="#afafaf"/><path d="M186 33l1 20h-14l5 162 100-4-11-15 32-1c-9.441-16.411-28.43-28.649-35.91-46-4.745-11.005-1.813-29.098-2.105-41C260.357 82.355 258 56.675 258 31l-72 2z"/><path d="M469 31l1 1-1-1z" fill="#5f5f5f"/><path d="M589 31l1 1-1-1z" fill="#9f9f9f"/><path d="M418 32v1h3l-3-1m-27 1v1h7l-7-1z" fill="#3f3f3f"/><path d="M398 33v1h7l-7-1z" fill="#7f7f7f"/><path d="M405 33v1h6l-6-1z" fill="#bfbfbf"/><path d="M332 36l7 154 88-3-25.424-39-9.753-17 13.974-20.91-16.15-18.094L397.579 75 421 33l-89 3z" fill="#fff"/><path d="M470 33l1 1-1-1m71 0l1 1-1-1z" fill="#6f6f6f"/><path d="M363 34v1h7l-7-1z" fill="#3f3f3f"/><path d="M370 34v1h7l-7-1z" fill="#7f7f7f"/><path d="M377 34v1h7l-7-1z" fill="#bfbfbf"/><path d="M517 34l1 1-1-1m71 0l1 1-1-1z" fill="#6f6f6f"/><path d="M40 38l1 20-15 1 2.09 49L33 223l60-3v-15h19l-.09-27 .118-13.961L125 153c.887-7.957 19.665-12.146 17.654-20.015-1.844-7.216-14.423-14.934-19.654-19.946-2.123-2.034-6.551-4.689-6.258-8.078.538-6.218 9.453-14.925 12.978-19.961 11.083-15.834 25.605-32.212 33.28-50L40 38z"/><path d="M335 35v1h7l-7-1z" fill="#3f3f3f"/><path d="M342 35v1h7l-7-1z" fill="#7f7f7f"/><path d="M349 35v1h7l-7-1z" fill="#bfbfbf"/><path d="M419 35l1 1-1-1m52 0l1 1-1-1z" fill="#9f9f9f"/><path d="M227 36v1h8l-8-1z" fill="#3f3f3f"/><path d="M235 36v1h9l-9-1z" fill="#7f7f7f"/><path d="M244 36v1h8l-8-1z" fill="#bfbfbf"/><path d="M252 36v3h1l-1-3z" fill="#7f7f7f"/><path d="M518 36l1 1-1-1z" fill="#8f8f8f"/><path d="M540 36l1 1-1-1z" fill="#6f6f6f"/><path d="M587.333 36.667l.334.666-.334-.666z" fill="#4f4f4f"/><path d="M194 37v1h8l-8-1z" fill="#3f3f3f"/><path d="M202 37v1h9l-9-1z" fill="#7f7f7f"/><path d="M211 37v1h8l-8-1z" fill="#bfbfbf"/><path d="M192 38l6 155 90-3c-8.928-13.057-25.379-25.05-30.867-40-4.319-11.768-2.132-30.455-2.133-43-.001-23.292-2.001-46.74-3-70l-60 1z" fill="#fff"/><path d="M418 37l1 1-1-1z" fill="#7f7f7f"/><path d="M191 38v7h1l-1-7z" fill="#3f3f3f"/><path d="M252 39v4h1l-1-4z" fill="#bfbfbf"/><path d="M417 39l1 1-1-1m103 0l1 1-1-1z" fill="#5f5f5f"/><path d="M539 39l1 1-1-1m47 0l1 1-1-1z" fill="#7f7f7f"/><path d="M134 40v1h8l-8-1z" fill="#3f3f3f"/><path d="M142 40v1h8l-8-1z" fill="#7f7f7f"/><path d="M150 40v1l3 1-3-2z" fill="#bfbfbf"/><path d="M101 41v1h8l-8-1z" fill="#3f3f3f"/><path d="M109 41v1h8l-8-1z" fill="#7f7f7f"/><path d="M117 41v1h8l-8-1z" fill="#bfbfbf"/><path d="M46 44l6 157 54-2c0-10.882-4.373-30.343.457-40 5.351-10.698 20.668-17.32 29.543-25v-1c-6.8-6.264-23.675-16.698-25.65-26-1.317-6.201 7.078-14.303 10.309-19C130.743 73.34 145.686 57.658 152 41L46 44z" fill="#fff"/><path d="M521 41l1 1-1-1z" fill="#8f8f8f"/><path d="M68 42v1h8l-8-1z" fill="#3f3f3f"/><path d="M76 42v1h8l-8-1z" fill="#7f7f7f"/><path d="M84 42v1h8l-8-1m248 0v6h1l-1-6z" fill="#bfbfbf"/><path d="M474 42l1 1-1-1z" fill="#8f8f8f"/><path d="M585 42l1 1-1-1z" fill="#5f5f5f"/><path d="M45 43v8h1l-1-8z" fill="#3f3f3f"/><path d="M46 43v1h5l-5-1z" fill="#7f7f7f"/><path d="M51 43v1h8l-8-1z" fill="#bfbfbf"/><path d="M150 44l1 1-1-1m264 0l1 1-1-1z" fill="#8f8f8f"/><path d="M475 44l1 1-1-1z" fill="#9f9f9f"/><path d="M523 44l1 1-1-1z" fill="#6f6f6f"/><path d="M584 44l1 1-1-1m-47 1l1 1-1-1z" fill="#8f8f8f"/><path d="M413 46l1 1-1-1z" fill="#7f7f7f"/><path d="M524 46l1 1-1-1z" fill="#9f9f9f"/><path d="M148 47l1 1-1-1z" fill="#7f7f7f"/><path d="M476 47l1 1-1-1z" fill="#5f5f5f"/><path d="M253 48v7h1l-1-7z" fill="#3f3f3f"/><path d="M332 48v5h1l-1-5z" fill="#7f7f7f"/><path d="M536 48l1 1-1-1z" fill="#9f9f9f"/><path d="M477 49l1 1-1-1m49 0l1 1-1-1z" fill="#7f7f7f"/><path d="M582 49l1 1-1-1z" fill="#9f9f9f"/><path d="M146 50l1 1-1-1z" fill="#6f6f6f"/><path d="M410 51l1 1-1-1m68 0l1 1-1-1z" fill="#9f9f9f"/><path d="M192 52v7h1l-1-7z" fill="#bfbfbf"/><path d="M581 52l1 1-1-1z" fill="#6f6f6f"/><path d="M144 53l1 1-1-1z" fill="#5f5f5f"/><path d="M332 53v6h1l-1-6z" fill="#3f3f3f"/><path d="M409 53l1 1-1-1z" fill="#7f7f7f"/><path d="M532 53l1 1-1-1m48 1l1 1-1-1z" fill="#9f9f9f"/><path d="M253 55v7h1l-1-7z" fill="#7f7f7f"/><path d="M408 55l1 1-1-1z" fill="#5f5f5f"/><path d="M480 56l1 1-1-1z" fill="#6f6f6f"/><path d="M46 57v6h1l-1-6z" fill="#bfbfbf"/><path d="M141 57l1 1-1-1z" fill="#8f8f8f"/><path d="M579 57l1 1-1-1z" fill="#7f7f7f"/><path d="M481 58l1 1-1-1z" fill="#9f9f9f"/><path d="M192 59v6h1l-1-6m-53 1l1 1-1-1z" fill="#7f7f7f"/><path d="M405 60l1 1-1-1z" fill="#9f9f9f"/><path d="M253 62v7h1l-1-7z" fill="#bfbfbf"/><path d="M404 62l1 1-1-1z" fill="#7f7f7f"/><path d="M577 62l1 1-1-1z" fill="#8f8f8f"/><path d="M46 63v7h1l-1-7m91 0l1 1-1-1z" fill="#7f7f7f"/><path d="M483 63l1 1-1-1z" fill="#5f5f5f"/><path d="M333 64v6h1l-1-6z" fill="#bfbfbf"/><path d="M403 64l1 1-1-1z" fill="#5f5f5f"/><path d="M192 65v7h1l-1-7z" fill="#3f3f3f"/><path d="M484 65l1 1-1-1z" fill="#7f7f7f"/><path d="M576 65l1 1-1-1z" fill="#5f5f5f"/><path d="M135 66l1 1-1-1z" fill="#6f6f6f"/><path d="M485 67l1 1-1-1m90 0l1 1-1-1z" fill="#9f9f9f"/><path d="M400 69l1 1-1-1z" fill="#8f8f8f"/><path d="M46 70v6h1l-1-6z" fill="#3f3f3f"/><path d="M132 70l1 1-1-1z" fill="#9f9f9f"/><path d="M333 70v5h1l-1-5z" fill="#7f7f7f"/><path d="M486 70l1 1-1-1z" fill="#5f5f5f"/><path d="M399 71l1 1-1-1z" fill="#6f6f6f"/><path d="M487 72l1 1-1-1z" fill="#7f7f7f"/><path d="M573 72l1 1-1-1z" fill="#9f9f9f"/><path d="M130 73l1 1-1-1z" fill="#8f8f8f"/><path d="M488 74l1 1-1-1z" fill="#9f9f9f"/><path d="M333 75v6h1l-1-6z" fill="#3f3f3f"/><path d="M572 75l1 1-1-1z" fill="#6f6f6f"/><path d="M128 76l1 1-1-1z" fill="#7f7f7f"/><path d="M254 76v7h1l-1-7z" fill="#3f3f3f"/><path d="M396 76l1 1-1-1z" fill="#8f8f8f"/><path d="M395 78l1 1-1-1z" fill="#6f6f6f"/><path d="M126 79l1 1-1-1z" fill="#5f5f5f"/><path d="M193 79v6h1l-1-6z" fill="#bfbfbf"/><path d="M490 79l1 1-1-1z" fill="#6f6f6f"/><path d="M570 80l1 1-1-1z" fill="#7f7f7f"/><path d="M491 81l1 1-1-1z" fill="#8f8f8f"/><path d="M47 82v7h1l-1-7z" fill="#bfbfbf"/><path d="M123 83l1 1-1-1z" fill="#8f8f8f"/><path d="M254 83v7h1l-1-7z" fill="#7f7f7f"/><path d="M392 83l1 1-1-1z" fill="#8f8f8f"/><path d="M569 83l1 1-1-1z" fill="#5f5f5f"/><path d="M193 85v7h1l-1-7z" fill="#7f7f7f"/><path d="M391 85l1 1-1-1z" fill="#6f6f6f"/><path d="M568 85l1 1-1-1z" fill="#8f8f8f"/><path d="M121 86l1 1-1-1z" fill="#7f7f7f"/><path d="M493 86l1 1-1-1z" fill="#5f5f5f"/><path d="M334 87v5h1l-1-5z" fill="#bfbfbf"/><path d="M494 88l1 1-1-1M47 89v6h1l-1-6z" fill="#7f7f7f"/><path d="M119 89l1 1-1-1z" fill="#6f6f6f"/><path d="M389 89v5h1l-1-5z" fill="#3f3f3f"/><path d="M254 90v7h1l-1-7z" fill="#bfbfbf"/><path d="M495 90l1 1-1-1m71 0l1 1-1-1z" fill="#9f9f9f"/><path d="M193 92v7h1l-1-7z" fill="#3f3f3f"/><path d="M334 92v6h1l-1-6z" fill="#7f7f7f"/><path d="M116 93l1 1-1-1z" fill="#8f8f8f"/><path d="M496 93l1 1-1-1z" fill="#5f5f5f"/><path d="M47 95v6h1l-1-6z" fill="#3f3f3f"/><path d="M390 95l1 1-1-1m107 0l1 1-1-1z" fill="#7f7f7f"/><path d="M564 95l1 1-1-1z" fill="#9f9f9f"/><path d="M114 96l1 1-1-1z" fill="#7f7f7f"/><path d="M391 96l1 1-1-1z" fill="#5f5f5f"/><path d="M392 97l1 1-1-1z" fill="#7f7f7f"/><path d="M498 97l1 1-1-1z" fill="#9f9f9f"/><path d="M334 98v5h1l-1-5z" fill="#3f3f3f"/><path d="M563 98l1 1-1-1z" fill="#6f6f6f"/><path d="M112 99l1 1-1-1z" fill="#5f5f5f"/><path d="M396 100l1 1-1-1z" fill="#6f6f6f"/><path d="M499 100l1 1-1-1z" fill="#5f5f5f"/><path d="M562 100l1 1-1-1m-165 1l1 1-1-1z" fill="#9f9f9f"/><path d="M110 102l1 1-1-1m390 0l1 1-1-1m61 1l1 1-1-1z" fill="#6f6f6f"/><path d="M255 104v7h1l-1-7z" fill="#3f3f3f"/><path d="M401 104l1 1-1-1z" fill="#5f5f5f"/><path d="M501.333 104.667l.334.666-.334-.666z" fill="#4f4f4f"/><path d="M109.333 105.667l.334.666-.334-.666z" fill="#7f7f7f"/><path d="M402 105l1 1-1-1z" fill="#6f6f6f"/><path d="M194 106v6h1l-1-6z" fill="#bfbfbf"/><path d="M403 106l1 1-1-1z" fill="#9f9f9f"/><path d="M48 108v6h1l-1-6m287 1v5h1l-1-5z" fill="#bfbfbf"/><path d="M111 110l1 1-1-1m1 1l1 1-1-1z" fill="#5f5f5f"/><path d="M255 111v7h1l-1-7z" fill="#7f7f7f"/><path d="M113 112l1 1-1-1z" fill="#6f6f6f"/><path d="M194 112v7h1l-1-7z" fill="#7f7f7f"/><path d="M114 113l1 1-1-1z" fill="#9f9f9f"/><path d="M404 113l1 1-1-1z" fill="#5f5f5f"/><path d="M48 114v6h1l-1-6z" fill="#7f7f7f"/><path d="M115 114l1 1-1-1z" fill="#9f9f9f"/><path d="M335 114v6h1l-1-6m68 0l1 1-1-1z" fill="#7f7f7f"/><path d="M561 114l1 1-1-1z" fill="#5f5f5f"/><path d="M402 115l1 1-1-1z" fill="#9f9f9f"/><path d="M562 116l1 1-1-1z" fill="#6f6f6f"/><path d="M255 118v7h1l-1-7z" fill="#bfbfbf"/><path d="M563 118l1 1-1-1z" fill="#7f7f7f"/><path d="M194 119v6h1l-1-6m-146 1v7h1l-1-7m287 0v5h1l-1-5z" fill="#3f3f3f"/><path d="M398 120l1 1-1-1z" fill="#5f5f5f"/><path d="M498 120l1 1-1-1z" fill="#9f9f9f"/><path d="M564 120l1 1-1-1z" fill="#7f7f7f"/><path d="M397 121l1 1-1-1m-273 1l1 1-1-1z" fill="#5f5f5f"/><path d="M396 122l1 1-1-1z" fill="#9f9f9f"/><path d="M497.333 122.667l.334.666-.334-.666z" fill="#afafaf"/><path d="M565 122l1 1-1-1z" fill="#9f9f9f"/><path d="M125 123l1 1-1-1z" fill="#5f5f5f"/><path d="M395 123l1 1-1-1z" fill="#9f9f9f"/><path d="M126 124l1 1-1-1z" fill="#5f5f5f"/><path d="M566 124l1 1-1-1m-439 1l1 1-1-1z" fill="#9f9f9f"/><path d="M496 125l1 1-1-1z" fill="#5f5f5f"/><path d="M128 126l1 1-1-1m1 1l1 1-1-1m1 1l1 1-1-1z" fill="#9f9f9f"/><path d="M495 128l1 1-1-1z" fill="#6f6f6f"/><path d="M391 129v4h1l-1-4z" fill="#3f3f3f"/><path d="M336 131v6h1l-1-6z" fill="#bfbfbf"/><path d="M570 131l1 1-1-1z" fill="#5f5f5f"/><path d="M195 132v7h1l-1-7z" fill="#bfbfbf"/><path d="M256 132v6h1l-1-6z" fill="#3f3f3f"/><path d="M49 133v6h1l-1-6z" fill="#bfbfbf"/><path d="M571 133l1 1-1-1z" fill="#5f5f5f"/><path d="M135 134l1 1-1-1z" fill="#6f6f6f"/><path d="M572 135l1 1-1-1z" fill="#5f5f5f"/><path d="M393 136l1 1-1-1z" fill="#6f6f6f"/><path d="M131 137l1 1-1-1z" fill="#8f8f8f"/><path d="M336 137v5h1l-1-5m237 0l1 1-1-1m-317 1v7h1l-1-7m-207 1v7h1l-1-7m146 0v7h1l-1-7m200 0l1 1-1-1z" fill="#7f7f7f"/><path d="M491.333 139.667l.334.666-.334-.666z" fill="#afafaf"/><path d="M574 139l1 1-1-1z" fill="#7f7f7f"/><path d="M127 140l1 1-1-1z" fill="#9f9f9f"/><path d="M126 141l1 1-1-1z" fill="#5f5f5f"/><path d="M575 141l1 1-1-1z" fill="#7f7f7f"/><path d="M336 142v6h1l-1-6z" fill="#3f3f3f"/><path d="M397 142l1 1-1-1z" fill="#8f8f8f"/><path d="M490 142l1 1-1-1z" fill="#5f5f5f"/><path d="M576 143l1 1-1-1z" fill="#9f9f9f"/><path d="M122 144l1 1-1-1z" fill="#6f6f6f"/><path d="M256 145v4h1l-1-4z" fill="#bfbfbf"/><path d="M399 145l1 1-1-1z" fill="#9f9f9f"/><path d="M489 145l1 1-1-1z" fill="#6f6f6f"/><path d="M577 145l1 1-1-1z" fill="#9f9f9f"/><path d="M49 146v6h1l-1-6m146 0v6h1l-1-6z" fill="#3f3f3f"/><path d="M578 147l1 1-1-1z" fill="#9f9f9f"/><path d="M116 148l1 1-1-1z" fill="#8f8f8f"/><path d="M488 148l1 1-1-1z" fill="#6f6f6f"/><path d="M113 150l1 1-1-1m144 1l1 1-1-1z" fill="#8f8f8f"/><path d="M258 153l1 1-1-1z" fill="#7f7f7f"/><path d="M337 153v6h1l-1-6z" fill="#bfbfbf"/><path d="M582 154l1 1-1-1z" fill="#5f5f5f"/><path d="M107 156l1 1-1-1z" fill="#6f6f6f"/><path d="M260 156l1 1-1-1z" fill="#9f9f9f"/><path d="M583 156l1 1-1-1z" fill="#5f5f5f"/><path d="M261 157l1 1-1-1z" fill="#6f6f6f"/><path d="M50 158v7h1l-1-7z" fill="#bfbfbf"/><path d="M106 158l1 1-1-1m478 0l1 1-1-1z" fill="#5f5f5f"/><path d="M196 159v7h1l-1-7z" fill="#bfbfbf"/><path d="M337 159v6h1l-1-6m-232 1v3h1l-1-3z" fill="#7f7f7f"/><path d="M585 160l1 1-1-1z" fill="#6f6f6f"/><path d="M265 162l1 1-1-1z" fill="#8f8f8f"/><path d="M532.667 162.333l.666.334-.666-.334z" fill="#bfbfbf"/><path d="M586 162l1 1-1-1z" fill="#7f7f7f"/><path d="M105 163v5h1l-1-5z" fill="#3f3f3f"/><path d="M266 163l1 1-1-1z" fill="#5f5f5f"/><path d="M587 164l1 1-1-1m-537 1v6h1l-1-6z" fill="#7f7f7f"/><path d="M337 165v5h1l-1-5z" fill="#3f3f3f"/><path d="M482.333 165.667l.334.666-.334-.666z" fill="#afafaf"/><path d="M196 166v7h1l-1-7m392 0l1 1-1-1z" fill="#7f7f7f"/><path d="M269 167l1 1-1-1z" fill="#9f9f9f"/><path d="M528 167l1 1-1-1m9 0l1 1-1-1z" fill="#6f6f6f"/><path d="M105 168v3h1l-1-3z" fill="#7f7f7f"/><path d="M270 168l1 1-1-1z" fill="#5f5f5f"/><path d="M481.333 168.667l.334.666-.334-.666z" fill="#afafaf"/><path d="M589 168l1 1-1-1m1 2l1 1-1-1z" fill="#9f9f9f"/><path d="M50 171v6h1l-1-6z" fill="#3f3f3f"/><path d="M105.333 171.667l.334.666-.334-.666z" fill="#bfbfbf"/><path d="M480.333 171.667l.334.666-.334-.666z" fill="#afafaf"/><path d="M526 171l1 1-1-1z" fill="#5f5f5f"/><path d="M417 172l1 1-1-1m174 0l1 1-1-1z" fill="#9f9f9f"/><path d="M196 173v6h1l-1-6z" fill="#3f3f3f"/><path d="M274 173l1 1-1-1z" fill="#8f8f8f"/><path d="M525 173l1 1-1-1m-250 1l1 1-1-1m204 0l1 1-1-1z" fill="#5f5f5f"/><path d="M419 175l1 1-1-1z" fill="#8f8f8f"/><path d="M524 175l1 1-1-1z" fill="#7f7f7f"/><path d="M106 176v23h1l-1-23z" fill="#3f3f3f"/><path d="M338 176v5h1l-1-5z" fill="#bfbfbf"/><path d="M478 177l1 1-1-1z" fill="#6f6f6f"/><path d="M523 177l1 1-1-1z" fill="#7f7f7f"/><path d="M278 178l1 1-1-1z" fill="#9f9f9f"/><path d="M421 178l1 1-1-1z" fill="#8f8f8f"/><path d="M279 179l1 1-1-1z" fill="#6f6f6f"/><path d="M522 179l1 1-1-1z" fill="#9f9f9f"/><path d="M477 180l1 1-1-1z" fill="#6f6f6f"/><path d="M338 181v6h1l-1-6z" fill="#7f7f7f"/><path d="M423 181l1 1-1-1z" fill="#8f8f8f"/><path d="M521 181l1 1-1-1z" fill="#9f9f9f"/><path d="M577 181v1h9l-9-1z" fill="#bfbfbf"/><path d="M586 181v1h10l-10-1m-40 1v1h10l-10-1z" fill="#7f7f7f"/><path d="M556 182v1h10l-10-1z" fill="#3f3f3f"/><path d="M476 183l1 1-1-1z" fill="#6f6f6f"/><path d="M51 184v6h1l-1-6z" fill="#bfbfbf"/><path d="M283 184l1 1-1-1z" fill="#9f9f9f"/><path d="M425 184l1 1-1-1z" fill="#7f7f7f"/><path d="M476 184l6 2v-1l-6-1m25 0v1h6l-6-1z" fill="#bfbfbf"/><path d="M507 184v1h5l-5-1z" fill="#7f7f7f"/><path d="M512 184v1h5l-5-1z" fill="#3f3f3f"/><path d="M284 185l1 1-1-1z" fill="#5f5f5f"/><path d="M482 185v1h7l-7-1z" fill="#7f7f7f"/><path d="M489 185v1h6l-6-1z" fill="#3f3f3f"/><path d="M197 186l2 8-2-8z" fill="#bfbfbf"/><path d="M338 187v3h1l-1-3z" fill="#3f3f3f"/><path d="M407 187v1h6l-6-1z" fill="#bfbfbf"/><path d="M413 187v1h7l-7-1z" fill="#7f7f7f"/><path d="M420 187v1h6l-6-1z" fill="#3f3f3f"/><path d="M381 188v1h6l-6-1z" fill="#bfbfbf"/><path d="M387 188v1h7l-7-1z" fill="#7f7f7f"/><path d="M394 188v1h6l-6-1z" fill="#3f3f3f"/><path d="M354 189v1h7l-7-1z" fill="#bfbfbf"/><path d="M361 189v1h7l-7-1z" fill="#7f7f7f"/><path d="M368 189v1h6l-6-1z" fill="#3f3f3f"/><path d="M51 190v6h1l-1-6z" fill="#7f7f7f"/><path d="M264 190v1h6l-6-1z" fill="#bfbfbf"/><path d="M270 190v1h6l-6-1z" fill="#7f7f7f"/><path d="M276 190v1h6l-6-1z" fill="#3f3f3f"/><path d="M339.667 190.333l.666.334-.666-.334z" fill="#7f7f7f"/><path d="M341 190v1h7l-7-1z" fill="#3f3f3f"/><path d="M241 191v1h6l-6-1z" fill="#bfbfbf"/><path d="M247 191v1h6l-6-1z" fill="#7f7f7f"/><path d="M253 191v1h5l-5-1z" fill="#3f3f3f"/><path d="M217 192v1h6l-6-1z" fill="#bfbfbf"/><path d="M223 192v1h6l-6-1z" fill="#7f7f7f"/><path d="M229 192v1h5l-5-1z" fill="#3f3f3f"/><path d="M199 193v1h6l-6-1z" fill="#7f7f7f"/><path d="M205 193v1h6l-6-1m-154 3v5h1l-1-5z" fill="#3f3f3f"/><path d="M95 199v1h7l-7-1z" fill="#bfbfbf"/><path d="M102 199v1h4l-4-1z" fill="#7f7f7f"/><path d="M67 200v1h7l-7-1z" fill="#bfbfbf"/><path d="M74 200v1h7l-7-1z" fill="#7f7f7f"/><path d="M81 200v1h7l-7-1m-29 1v1h8l-8-1z" fill="#3f3f3f"/></svg>